<?xml version="1.0" encoding="UTF-8" standalone="no"?>
<!-- Created with Inkscape (http://www.inkscape.org/) -->

<svg
   xmlns:dc="http://purl.org/dc/elements/1.1/"
   xmlns:cc="http://creativecommons.org/ns#"
   xmlns:rdf="http://www.w3.org/1999/02/22-rdf-syntax-ns#"
   xmlns:svg="http://www.w3.org/2000/svg"
   xmlns="http://www.w3.org/2000/svg"
   xmlns:sodipodi="http://sodipodi.sourceforge.net/DTD/sodipodi-0.dtd"
   xmlns:inkscape="http://www.inkscape.org/namespaces/inkscape"
   width="697.5871"
   height="92.198448"
   id="svg2"
   sodipodi:version="0.32"
   inkscape:version="0.92.3 (2405546, 2018-03-11)"
   sodipodi:docname="saylermorph_center.svg"
   version="1.0"
   inkscape:output_extension="org.inkscape.output.svg.inkscape">
  <defs
     id="defs4">
    <marker
       inkscape:stockid="Arrow1Sstart"
       orient="auto"
       refY="0"
       refX="0"
       id="Arrow1Sstart"
       style="overflow:visible">
      <path
         id="path3236"
         d="M 0,0 5,-5 -12.5,0 5,5 Z"
         style="fill-rule:evenodd;stroke:#000000;stroke-width:1.00000003pt;marker-start:none"
         transform="matrix(0.2,0,0,0.2,1.2,0)"
         inkscape:connector-curvature="0" />
    </marker>
    <marker
       inkscape:stockid="Arrow1Lstart"
       orient="auto"
       refY="0"
       refX="0"
       id="Arrow1Lstart"
       style="overflow:visible">
      <path
         id="path3224"
         d="M 0,0 5,-5 -12.5,0 5,5 Z"
         style="fill-rule:evenodd;stroke:#000000;stroke-width:1.00000003pt;marker-start:none"
         transform="matrix(0.8,0,0,0.8,10,0)"
         inkscape:connector-curvature="0" />
    </marker>
    <marker
       inkscape:stockid="Arrow1Mstart"
       orient="auto"
       refY="0"
       refX="0"
       id="Arrow1Mstart"
       style="overflow:visible">
      <path
         id="path3230"
         d="M 0,0 5,-5 -12.5,0 5,5 Z"
         style="fill-rule:evenodd;stroke:#000000;stroke-width:1.00000003pt;marker-start:none"
         transform="matrix(0.4,0,0,0.4,4,0)"
         inkscape:connector-curvature="0" />
    </marker>
    <inkscape:perspective
       sodipodi:type="inkscape:persp3d"
       inkscape:vp_x="0 : 60 : 1"
       inkscape:vp_y="0 : 1000 : 0"
       inkscape:vp_z="190 : 60 : 1"
       inkscape:persp3d-origin="95 : 40 : 1"
       id="perspective21" />
    <marker
       style="overflow:visible"
       id="Arrow1Sstart-7"
       refX="0"
       refY="0"
       orient="auto"
       inkscape:stockid="Arrow1Sstart">
      <path
         transform="matrix(0.2,0,0,0.2,1.2,0)"
         style="fill-rule:evenodd;stroke:#000000;stroke-width:1.00000003pt;marker-start:none"
         d="M 0,0 5,-5 -12.5,0 5,5 Z"
         id="path3236-5"
         inkscape:connector-curvature="0" />
    </marker>
    <marker
       style="overflow:visible"
       id="Arrow1Lstart-3"
       refX="0"
       refY="0"
       orient="auto"
       inkscape:stockid="Arrow1Lstart">
      <path
         transform="matrix(0.8,0,0,0.8,10,0)"
         style="fill-rule:evenodd;stroke:#000000;stroke-width:1.00000003pt;marker-start:none"
         d="M 0,0 5,-5 -12.5,0 5,5 Z"
         id="path3224-5"
         inkscape:connector-curvature="0" />
    </marker>
    <marker
       style="overflow:visible"
       id="Arrow1Mstart-6"
       refX="0"
       refY="0"
       orient="auto"
       inkscape:stockid="Arrow1Mstart">
      <path
         transform="matrix(0.4,0,0,0.4,4,0)"
         style="fill-rule:evenodd;stroke:#000000;stroke-width:1.00000003pt;marker-start:none"
         d="M 0,0 5,-5 -12.5,0 5,5 Z"
         id="path3230-2"
         inkscape:connector-curvature="0" />
    </marker>
    <inkscape:perspective
       id="perspective21-9"
       inkscape:persp3d-origin="95 : 40 : 1"
       inkscape:vp_z="190 : 60 : 1"
       inkscape:vp_y="0 : 1000 : 0"
       inkscape:vp_x="0 : 60 : 1"
       sodipodi:type="inkscape:persp3d" />
  </defs>
  <sodipodi:namedview
     id="base"
     pagecolor="#ffffff"
     bordercolor="#666666"
     borderopacity="1.0"
     inkscape:pageopacity="0.0"
     inkscape:pageshadow="2"
     inkscape:zoom="0.95897148"
     inkscape:cx="212.73323"
     inkscape:cy="-152.45494"
     inkscape:document-units="px"
     inkscape:current-layer="layer1"
     showgrid="false"
     gridtolerance="10000"
     inkscape:grid-bbox="false"
     inkscape:grid-points="true"
     inkscape:window-width="1916"
     inkscape:window-height="1044"
     inkscape:window-x="0"
     inkscape:window-y="16"
     inkscape:guide-bbox="false"
     width="190px"
     height="120px"
     inkscape:window-maximized="0"
     fit-margin-top="0"
     fit-margin-left="0"
     fit-margin-right="0"
     fit-margin-bottom="0">
    <inkscape:grid
       id="GridFromPre046Settings"
       type="xygrid"
       originx="-10.092976"
       originy="-422.76915"
       spacingx="10"
       spacingy="10"
       color="#0000ff"
       empcolor="#ff3f00"
       opacity="0.2"
       empopacity="0.37647059"
       empspacing="5"
       visible="true"
       enabled="true" />
  </sodipodi:namedview>
  <metadata
     id="metadata7">
    <rdf:RDF>
      <cc:Work
         rdf:about="">
        <dc:format>image/svg+xml</dc:format>
        <dc:type
           rdf:resource="http://purl.org/dc/dcmitype/StillImage" />
        <dc:title></dc:title>
      </cc:Work>
    </rdf:RDF>
  </metadata>
  <g
     inkscape:label="Ebene 1"
     inkscape:groupmode="layer"
     id="layer1"
     transform="translate(311.40702,314.10561)">
    <path
       id="path3333-35-2-7-5-7"
       style="fill:none;fill-rule:evenodd;stroke:#000000;stroke-width:10;stroke-linecap:square;stroke-linejoin:miter;stroke-miterlimit:4;stroke-dasharray:none;stroke-opacity:1"
       d="M -306.25845,-227.11839 H -262.13201 L -262.26869,-251.71451 H -306.25845 M -306.25845,-251.71451 -306.39515,-308.94214 -283.32171,-309.10547 -262.26869,-308.94214 M 337.03714,-251.46098 379.07039,-251.51927 M 380.88977,-308.97388 381.16338,-227.15052 M 336.50132,-226.92314 336.76354,-308.84652 M 272.61253,-251.51926 H 299.08846 316.73898 L 316.60237,-308.74688 295.54936,-308.91022 272.47591,-308.74688 V -226.92314 M 234.66386,-226.92314 V -251.51926 H 252.31438 L 252.17775,-308.74688 231.12475,-308.91022 208.05129,-308.74688 V -226.92314 M 143.62668,-226.92314 V -308.74688 L 166.70013,-308.91022 187.75315,-308.74688 187.88976,-226.92314 H 143.76329 M 101.40195,-308.91022 V -251.38578 M 79.202067,-226.92314 V -308.74688 L 101.40195,-308.91022 123.32852,-308.74688 V -226.92314 M 41.555973,-226.92314 V -251.51926 H 59.206562 L 59.069953,-308.74688 38.016931,-308.91022 14.943485,-308.74688 V -226.92314 M -5.2180565,-226.92314 H -49.344536 M -49.481148,-226.92314 V -308.74688 L -26.407688,-308.91022 -5.3546658,-308.74688 M -5.3546658,-251.51926 H -49.344536 M -68.896785,-227.08666 -91.970232,-226.92329 -113.02325,-227.08666 V -308.91039 M -177.31124,-251.46098 -135.27809,-251.51927 M -133.45863,-308.97388 -133.18502,-227.15052 M -177.31124,-251.46098 -177.58485,-308.84652 M -200.25694,-251.68092 H -239.97074 M -241.87246,-227.0848 V -308.90854 L -218.79901,-309.07188 -197.746,-308.90854 V -227.0848"
       inkscape:connector-curvature="0" />
  </g>
</svg>
